<svg width="308" height="86" viewBox="0 0 308 86" fill="none" xmlns="http://www.w3.org/2000/svg">
<rect x="65.5" y="20" width="46" height="46" rx="23" fill="#FD853A"/>
<path d="M80.7662 51.7273H74.5787V34.2727H80.8174C82.5731 34.2727 84.0844 34.6221 85.3515 35.321C86.6185 36.0142 87.5929 37.0113 88.2748 38.3125C88.9623 39.6136 89.306 41.1704 89.306 42.9829C89.306 44.8011 88.9623 46.3636 88.2748 47.6704C87.5929 48.9773 86.6128 49.9801 85.3344 50.679C84.0617 51.3778 82.539 51.7273 80.7662 51.7273ZM78.2691 48.5653H80.6128C81.7037 48.5653 82.6213 48.3721 83.3657 47.9858C84.1157 47.5937 84.6782 46.9886 85.0532 46.1704C85.4338 45.3466 85.6242 44.2841 85.6242 42.9829C85.6242 41.6932 85.4338 40.6392 85.0532 39.821C84.6782 39.0028 84.1185 38.4005 83.3742 38.0142C82.6299 37.6278 81.7123 37.4346 80.6213 37.4346H78.2691V48.5653Z" fill="white"/>
<path d="M87.7197 51.7273V34.2727H91.41V41.9687H91.6401L97.9214 34.2727H102.345L95.8674 42.088L102.421 51.7273H98.0066L93.2254 44.5511L91.41 46.767V51.7273H87.7197Z" fill="white"/>
<path d="M127.92 50H122.764V35.4545H127.963C129.426 35.4545 130.686 35.7457 131.741 36.3281C132.797 36.9058 133.609 37.7367 134.178 38.821C134.75 39.9053 135.037 41.2027 135.037 42.7131C135.037 44.2282 134.75 45.5303 134.178 46.6193C133.609 47.7083 132.793 48.544 131.727 49.1264C130.667 49.7088 129.398 50 127.92 50ZM125.839 47.3651H127.793C128.702 47.3651 129.466 47.2041 130.087 46.8821C130.712 46.5554 131.18 46.0511 131.493 45.3693C131.81 44.6828 131.969 43.7973 131.969 42.7131C131.969 41.6383 131.81 40.7599 131.493 40.0781C131.18 39.3963 130.714 38.8944 130.094 38.5724C129.473 38.2505 128.709 38.0895 127.8 38.0895H125.839V47.3651ZM137.315 50V35.4545H140.39V41.8679H140.582L145.816 35.4545H149.502L144.105 41.9673L149.566 50H145.887L141.903 44.0199L140.39 45.8665V50H137.315ZM156.965 41.527V43.9276H150.332V41.527H156.965ZM162.464 50L158.302 35.4545H161.662L164.069 45.5611H164.19L166.846 35.4545H169.723L172.372 45.5824H172.5L174.907 35.4545H178.267L174.105 50H171.108L168.338 40.4901H168.224L165.461 50H162.464ZM182.988 35.4545V50H179.913V35.4545H182.988ZM185.518 50V35.4545H188.593V47.4645H194.829V50H185.518ZM196.866 50V35.4545H199.941V47.4645H206.177V50H196.866ZM211.289 35.4545V50H208.213V35.4545H211.289ZM225.985 35.4545V50H223.329L217.001 40.8452H216.894V50H213.819V35.4545H216.518L222.796 44.6023H222.924V35.4545H225.985ZM238.171 40.1562C238.071 39.8106 237.932 39.5052 237.752 39.2401C237.572 38.9702 237.352 38.7429 237.091 38.5582C236.836 38.3688 236.542 38.2244 236.211 38.125C235.884 38.0256 235.522 37.9759 235.124 37.9759C234.381 37.9759 233.727 38.1605 233.164 38.5298C232.605 38.8991 232.169 39.4366 231.857 40.142C231.544 40.8428 231.388 41.6998 231.388 42.7131C231.388 43.7263 231.542 44.5881 231.85 45.2983C232.158 46.0085 232.593 46.5507 233.157 46.9247C233.72 47.294 234.385 47.4787 235.152 47.4787C235.848 47.4787 236.443 47.3556 236.935 47.1094C237.432 46.8584 237.811 46.5057 238.071 46.0511C238.337 45.5966 238.469 45.0592 238.469 44.4389L239.094 44.5312H235.344V42.2159H241.431V44.0483C241.431 45.3267 241.161 46.4252 240.621 47.3438C240.081 48.2576 239.338 48.9631 238.391 49.4602C237.444 49.9527 236.36 50.1989 235.138 50.1989C233.775 50.1989 232.577 49.8982 231.544 49.2969C230.512 48.6908 229.707 47.8314 229.13 46.7188C228.557 45.6013 228.27 44.2756 228.27 42.7415C228.27 41.5625 228.441 40.5114 228.782 39.5881C229.127 38.66 229.61 37.8741 230.23 37.2301C230.851 36.5862 231.573 36.0961 232.397 35.7599C233.221 35.4238 234.113 35.2557 235.074 35.2557C235.898 35.2557 236.665 35.3764 237.375 35.6179C238.086 35.8546 238.715 36.1908 239.265 36.6264C239.819 37.062 240.271 37.5805 240.621 38.1818C240.971 38.7784 241.196 39.4366 241.296 40.1562H238.171Z" fill="white"/>
</svg>
